# xmcd CD database file
#
# Track frame offsets:
#	150
#	27941
#	52350
#	68665
#	95284
#	112916
#	135615
#	160941
#	179434
#	200485
#	225451
#	247727
#	271677
#
# Disc length: 3945 seconds
#
# Revision: 1
# Processed by: cddbd v1.5.1PL0 Copyright (c) Steve Scherf et al.
# Submitted via: CDex 1.51
#
DISCID=a70f670d
DTITLE=JB5 - Blues and Beyond
DYEAR=2004
DGENRE=Blues
TTITLE0=Stormy Monday Blues
TTITLE1=The Thrill Is Gone
TTITLE2=Come Together
TTITLE3=Black Magic Woman
TTITLE4=Hound Dog
TTITLE5=On Broadway
TTITLE6=Red House
TTITLE7=Kansas City
TTITLE8=Ain't No Sunshine
TTITLE9=Moondance
TTITLE10=Honky Tonk Woman
TTITLE11=What's Going On
TTITLE12=Georgia An My Mind
EXTD=YEAR: 2004
EXTT0=
EXTT1=
EXTT2=
EXTT3=
EXTT4=
EXTT5=
EXTT6=
EXTT7=
EXTT8=
EXTT9=
EXTT10=
EXTT11=
EXTT12=
PLAYORDER=
